<svg width="26" height="22" viewBox="0 0 26 22" fill="none" xmlns="http://www.w3.org/2000/svg">
<path d="M25.6828 3.20676C24.725 3.62294 23.7116 3.89712 22.6746 4.02065C23.7644 3.38251 24.584 2.36871 24.9796 1.16939C23.9492 1.77187 22.8239 2.1946 21.6517 2.41948C21.1581 1.90217 20.5645 1.49064 19.9069 1.2099C19.2493 0.929154 18.5414 0.785064 17.8264 0.786386C14.9316 0.786386 12.5888 3.09505 12.5888 5.94099C12.5868 6.33685 12.6322 6.73153 12.724 7.1166C10.6481 7.01929 8.61545 6.48974 6.75599 5.56185C4.89653 4.63395 3.25123 3.32813 1.92535 1.72794C1.4602 2.5121 1.21421 3.4068 1.21307 4.31854C1.21307 6.10589 2.14558 7.68579 3.55366 8.61138C2.71941 8.59159 1.90226 8.37078 1.17158 7.96772V8.03156C1.17158 10.5317 2.98021 12.6117 5.37399 13.0851C4.92385 13.2051 4.45998 13.2659 3.99411 13.266C3.66355 13.2665 3.33373 13.2345 3.00947 13.1702C3.67494 15.2182 5.61177 16.7077 7.90608 16.7502C6.04179 18.187 3.75293 18.9635 1.39925 18.9578C0.98147 18.9572 0.564073 18.9323 0.14917 18.8834C2.54358 20.4123 5.32689 21.221 8.1678 21.2133C17.8153 21.2133 23.0858 13.3564 23.0858 6.54209C23.0858 6.31868 23.08 6.09526 23.0693 5.87716C24.0923 5.14948 24.9773 4.24519 25.6828 3.20676Z" fill="white"/>
</svg>
